<?xml version="1.0" encoding="UTF-8"?>
<svg width="100px" height="100px" viewBox="0 0 100 100" version="1.1" xmlns="http://www.w3.org/2000/svg" xmlns:xlink="http://www.w3.org/1999/xlink">
    <title>Accessibility</title>
    <g id="Accessibility" stroke="none" stroke-width="1" fill="none" fill-rule="evenodd">
        <path d="M50.0252187,99 C56.7165895,99 63.0212729,97.7138446 68.9392692,95.1415337 C74.8572654,92.5692229 80.0691371,89.0301939 84.5748842,84.5244467 C89.0806313,80.0186996 92.6112541,74.8152342 95.1667524,68.9140504 C97.7222508,63.0128667 99,56.699777 99,49.9747813 C99,43.2834105 97.7138446,36.9787271 95.1415337,31.0607308 C92.5692229,25.1427346 89.0301939,19.9224567 84.5244467,15.3998971 C80.0186996,10.8773375 74.8068279,7.3467147 68.8888317,4.80802882 C62.9708355,2.26934294 56.666152,1 49.9747813,1 C43.2834105,1 36.9871333,2.26934294 31.0859496,4.80802882 C25.1847658,7.3467147 19.9728941,10.8773375 15.4503345,15.3998971 C10.9277749,19.9224567 7.38874593,25.1427346 4.83324756,31.0607308 C2.27774919,36.9787271 1,43.2834105 1,49.9747813 C1,56.699777 2.28615543,63.0128667 4.85846629,68.9140504 C7.43077715,74.8152342 10.9698061,80.0186996 15.4755533,84.5244467 C19.9813004,89.0301939 25.1847658,92.5692229 31.0859496,95.1415337 C36.9871333,97.7138446 43.300223,99 50.0252187,99 Z" id="Path" fill="#0B84FF" fill-rule="nonzero"></path>
        <path d="M55.5585938,84.2568359 C53.5,84.2568359 52.4707031,83.1777344 52.4707031,81.0195312 L52.4707031,60.1015625 C52.4707031,59.0390625 52.0058594,58.5078125 51.0761719,58.5078125 C50.1796875,58.5078125 49.7314453,59.0390625 49.7314453,60.1015625 L49.7314453,81.0195312 C49.7314453,83.1777344 48.71875,84.2568359 46.6933594,84.2568359 C44.6347656,84.2568359 43.6054688,83.1777344 43.6054688,81.0195312 L43.6054688,43.8652344 C43.6054688,42.703125 43.140625,41.7568359 42.2109375,41.0263672 L35.0888672,35.7470703 C33.6279297,34.6513672 32.8476562,33.2402344 32.7480469,31.5136719 L32.1005859,21.7021484 C32.0341797,20.7724609 32.2333984,20.0336914 32.6982422,19.4858398 C33.1630859,18.9379883 33.8271484,18.6308594 34.6904297,18.5644531 C35.5205078,18.4980469 36.1928711,18.7138672 36.7075195,19.2119141 C37.222168,19.7099609 37.5126953,20.4072266 37.5791016,21.3037109 L38.2265625,31.2148438 L42.609375,34.3027344 C43.3730469,34.8671875 44.0869141,35.265625 44.7509766,35.4980469 C45.4150391,35.7304688 46.2783203,35.8466797 47.3408203,35.8466797 L51.3251953,35.8466797 C56.6376953,35.8466797 60.5390625,36.6020508 63.0292969,38.112793 C65.5195312,39.6235352 66.7646484,42.5371094 66.7646484,46.8535156 L66.7646484,60.3007812 C66.7646484,62.2597656 65.8515625,63.2392578 64.0253906,63.2392578 C62.1992188,63.2392578 61.2861328,62.2597656 61.2861328,60.3007812 L61.2861328,46.1064453 C61.2861328,45.0439453 60.8212891,44.5126953 59.8916016,44.5126953 C58.9951172,44.5126953 58.546875,45.0439453 58.546875,46.1064453 L58.546875,81.0195312 C58.546875,83.1777344 57.5507812,84.2568359 55.5585938,84.2568359 Z" id="Path" fill="#FFFFFF" fill-rule="nonzero"></path>
        <path d="M51.3251953,32.8085938 C49.6650391,32.8085938 48.2207031,32.2026367 46.9921875,30.9907227 C45.7636719,29.7788086 45.1494141,28.3427734 45.1494141,26.6826172 C45.1494141,24.9560547 45.7470703,23.4868164 46.9423828,22.2749023 C48.1376953,21.0629883 49.5986328,20.4570312 51.3251953,20.4570312 C53.0517578,20.4570312 54.5209961,21.0629883 55.7329102,22.2749023 C56.9448242,23.4868164 57.5507812,24.9560547 57.5507812,26.6826172 C57.5507812,28.3427734 56.9365234,29.7788086 55.7080078,30.9907227 C54.4794922,32.2026367 53.0185547,32.8085938 51.3251953,32.8085938 Z" id="Path" fill="#FFFFFF" fill-rule="nonzero"></path>
    </g>
</svg>