<?xml version="1.0" encoding="UTF-8"?>
<svg width="100px" height="100px" viewBox="0 0 100 100" version="1.1" xmlns="http://www.w3.org/2000/svg" xmlns:xlink="http://www.w3.org/1999/xlink">
    <title>Participants</title>
    <g id="Participants" stroke="none" stroke-width="1" fill="none" fill-rule="evenodd">
        <path d="M50.0252187,99 C56.7165895,99 63.0212729,97.7138446 68.9392692,95.1415337 C74.8572654,92.5692229 80.0691371,89.0301939 84.5748842,84.5244467 C89.0806313,80.0186996 92.6112541,74.8152342 95.1667524,68.9140504 C97.7222508,63.0128667 99,56.699777 99,49.9747813 C99,43.2834105 97.7138446,36.9787271 95.1415337,31.0607308 C92.5692229,25.1427346 89.0301939,19.9224567 84.5244467,15.3998971 C80.0186996,10.8773375 74.8068279,7.3467147 68.8888317,4.80802882 C62.9708355,2.26934294 56.666152,1 49.9747813,1 C43.2834105,1 36.9871333,2.26934294 31.0859496,4.80802882 C25.1847658,7.3467147 19.9728941,10.8773375 15.4503345,15.3998971 C10.9277749,19.9224567 7.38874593,25.1427346 4.83324756,31.0607308 C2.27774919,36.9787271 1,43.2834105 1,49.9747813 C1,56.699777 2.28615543,63.0128667 4.85846629,68.9140504 C7.43077715,74.8152342 10.9698061,80.0186996 15.4755533,84.5244467 C19.9813004,89.0301939 25.1847658,92.5692229 31.0859496,95.1415337 C36.9871333,97.7138446 43.300223,99 50.0252187,99 Z" id="Path" fill="#0B84FF" fill-rule="nonzero"></path>
        <path d="M62.7119141,48.0195312 C60.1552734,48.0195312 57.9472656,47.0068359 56.0878906,44.9814453 C54.2285156,42.9560547 53.2988281,40.4990234 53.2988281,37.6103516 C53.2988281,34.7548828 54.2285156,32.3476562 56.0878906,30.3886719 C57.9472656,28.4296875 60.1552734,27.4501953 62.7119141,27.4501953 C65.2353516,27.4501953 67.418457,28.4130859 69.2612305,30.3388672 C71.1040039,32.2646484 72.0253906,34.671875 72.0253906,37.5605469 C72.0253906,40.4824219 71.1040039,42.9560547 69.2612305,44.9814453 C67.418457,47.0068359 65.2353516,48.0195312 62.7119141,48.0195312 Z" id="Path" fill="#FFFFFF" fill-rule="nonzero"></path>
        <path d="M35.6679688,48.4677734 C33.4433594,48.4677734 31.5175781,47.5961914 29.890625,45.8530273 C28.2636719,44.1098633 27.4501953,41.9765625 27.4501953,39.453125 C27.4501953,36.9960938 28.2719727,34.9125977 29.9155273,33.2026367 C31.559082,31.4926758 33.4765625,30.6376953 35.6679688,30.6376953 C37.859375,30.6376953 39.7685547,31.4760742 41.3955078,33.152832 C43.0224609,34.8295898 43.8359375,36.9130859 43.8359375,39.4033203 C43.8359375,41.9599609 43.0224609,44.1098633 41.3955078,45.8530273 C39.7685547,47.5961914 37.859375,48.4677734 35.6679688,48.4677734 Z" id="Path" fill="#FFFFFF" fill-rule="nonzero"></path>
        <path d="M40.2998047,69.6845703 L22.6191406,69.6845703 C21.0917969,69.6845703 20.0126953,69.3774414 19.3818359,68.7631836 C18.7509766,68.1489258 18.4355469,67.2939453 18.4355469,66.1982422 C18.4355469,64.0732422 19.1411133,61.9150391 20.5522461,59.7236328 C21.9633789,57.5322266 23.9638672,55.7060547 26.5537109,54.2451172 C29.1435547,52.7841797 32.1816406,52.0537109 35.6679688,52.0537109 C37.7929688,52.0537109 39.6938477,52.3442383 41.3706055,52.925293 C43.0473633,53.5063477 44.5664062,54.2119141 45.9277344,55.0419922 C44.2011719,56.3701172 42.7734375,57.9472656 41.6445312,59.7734375 C40.515625,61.5996094 39.8100586,63.4091797 39.527832,65.2021484 C39.2456055,66.9951172 39.5029297,68.4892578 40.2998047,69.6845703 Z" id="Path" fill="#FFFFFF" fill-rule="nonzero"></path>
        <path d="M77.2548828,69.6845703 L48.0195312,69.6845703 C46.1269531,69.6845703 44.7988281,69.4023438 44.0351562,68.8378906 C43.2714844,68.2734375 42.8896484,67.4765625 42.8896484,66.4472656 C42.8896484,64.4550781 43.6948242,62.3466797 45.3051758,60.1220703 C46.9155273,57.8974609 49.1982422,56.0131836 52.1533203,54.4692383 C55.1083984,52.925293 58.6279297,52.1533203 62.7119141,52.1533203 C66.7626953,52.1533203 70.2573242,52.925293 73.1958008,54.4692383 C76.1342773,56.0131836 78.4086914,57.8974609 80.019043,60.1220703 C81.6293945,62.3466797 82.4345703,64.4550781 82.4345703,66.4472656 C82.4345703,67.4765625 82.0527344,68.2734375 81.2890625,68.8378906 C80.5253906,69.4023438 79.1806641,69.6845703 77.2548828,69.6845703 Z" id="Path" fill="#FFFFFF" fill-rule="nonzero"></path>
    </g>
</svg>