<?xml version="1.0" encoding="UTF-8"?>
<svg width="100px" height="100px" viewBox="0 0 100 100" version="1.1" xmlns="http://www.w3.org/2000/svg" xmlns:xlink="http://www.w3.org/1999/xlink">
    <title>Type</title>
    <g id="Type" stroke="none" stroke-width="1" fill="none" fill-rule="evenodd">
        <g id="Group" transform="translate(0.416992, 4.377869)" fill-rule="nonzero">
            <path d="M31.7761688,28.4602661 C34.3680878,28.4602661 36.7401657,27.8130646 38.8924026,26.5186615 C41.0446396,25.2242584 42.7687378,23.5009384 44.0646973,21.3487015 C45.3606567,19.1964645 46.0086365,16.8409882 46.0086365,14.2822723 C46.0086365,11.6607819 45.3606567,9.27301025 44.0646973,7.11895752 C42.7687378,4.96490479 41.0446396,3.23989868 38.8924026,1.94393921 C36.7401657,0.647979736 34.3680878,0 31.7761688,0 C29.1873627,0 26.8093185,0.647979736 24.6420364,1.94393921 C22.4747543,3.23989868 20.7439117,4.96490479 19.4495087,7.11895752 C18.1551056,9.27301025 17.5079041,11.6607819 17.5079041,14.2822723 C17.5079041,16.8347626 18.1543274,19.1879044 19.4471741,21.3416977 C20.7400208,23.495491 22.4625626,25.2203674 24.6147995,26.5163269 C26.7670364,27.8122864 29.1541595,28.4602661 31.7761688,28.4602661 Z" id="Path" fill="#32D74B"></path>
            <path d="M66.7429504,28.4602661 C69.3613281,28.4602661 71.7474136,27.8130646 73.901207,26.5186615 C76.0550003,25.2242584 77.7790985,23.5009384 79.0735016,21.3487015 C80.3679047,19.1964645 81.0151062,16.8409882 81.0151062,14.2822723 C81.0151062,11.6607819 80.3679047,9.27301025 79.0735016,7.11895752 C77.7790985,4.96490479 76.0550003,3.23989868 73.901207,1.94393921 C71.7474136,0.647979736 69.3613281,0 66.7429504,0 C64.1541443,0 61.7828445,0.647979736 59.6290512,1.94393921 C57.4752579,3.23989868 55.7511597,4.96490479 54.4567566,7.11895752 C53.1623535,9.27301025 52.515152,11.6607819 52.515152,14.2822723 C52.515152,16.8409882 53.1623535,19.1964645 54.4567566,21.3487015 C55.7511597,23.5009384 57.4752579,25.2242584 59.6290512,26.5186615 C61.7828445,27.8130646 64.1541443,28.4602661 66.7429504,28.4602661 Z" id="Path" fill="#FF9F0C"></path>
            <path d="M14.2776031,59.8730164 C16.8664093,59.8730164 19.2452316,59.2184219 21.4140701,57.9092331 C23.5829086,56.6000443 25.3143997,54.8693314 26.6085434,52.7170944 C27.9026871,50.5648575 28.5497589,48.1943359 28.5497589,45.6055298 C28.5497589,43.0167236 27.9026871,40.6379013 26.6085434,38.4690628 C25.3143997,36.3002243 23.5829086,34.5686035 21.4140701,33.2742004 C19.2452316,31.9797974 16.8664093,31.3325958 14.2776031,31.3325958 C11.688797,31.3325958 9.30997467,31.9797974 7.14113617,33.2742004 C4.97229767,34.5686035 3.23989868,36.3002243 1.94393921,38.4690628 C0.647979736,40.6379013 0,43.0167236 0,45.6055298 C0,48.1642456 0.647201538,50.5272446 1.94160461,52.6945267 C3.23600769,54.8618088 4.9593277,56.6000443 7.11156464,57.9092331 C9.26380157,59.2184219 11.6524811,59.8730164 14.2776031,59.8730164 Z" id="Path" fill="#FF375F"></path>
            <path d="M49.2840729,59.8730164 C51.872879,59.8730164 54.2434006,59.2259445 56.3956375,57.9318008 C58.5478745,56.6376572 60.2711945,54.9069443 61.5655975,52.7396622 C62.8600006,50.5723801 63.5072021,48.1943359 63.5072021,45.6055298 C63.5072021,43.0167236 62.8600006,40.6379013 61.5655975,38.4690628 C60.2711945,36.3002243 58.5478745,34.5686035 56.3956375,33.2742004 C54.2434006,31.9797974 51.872879,31.3325958 49.2840729,31.3325958 C46.6620636,31.3325958 44.2749405,31.9797974 42.1227036,33.2742004 C39.9704666,34.5686035 38.2472763,36.3002243 36.9531326,38.4690628 C35.658989,40.6379013 35.0119171,43.0167236 35.0119171,45.6055298 C35.0119171,48.1943359 35.658989,50.5723801 36.9531326,52.7396622 C38.2472763,54.9069443 39.9704666,56.6376572 42.1227036,57.9318008 C44.2749405,59.2259445 46.6620636,59.8730164 49.2840729,59.8730164 Z" id="Path" fill="#DEDEDE"></path>
            <path d="M84.2461853,59.8730164 C86.8349915,59.8730164 89.2138138,59.2259445 91.3826523,57.9318008 C93.5514908,56.6376572 95.2831116,54.9069443 96.5775146,52.7396622 C97.8719177,50.5723801 98.5191193,48.1943359 98.5191193,45.6055298 C98.5191193,43.0167236 97.8719177,40.6379013 96.5775146,38.4690628 C95.2831116,36.3002243 93.5514908,34.5686035 91.3826523,33.2742004 C89.2138138,31.9797974 86.8349915,31.3325958 84.2461853,31.3325958 C81.6542664,31.3325958 79.2814102,31.9797974 77.1276169,33.2742004 C74.9738235,34.5686035 73.2497253,36.3002243 71.9553223,38.4690628 C70.6609192,40.6379013 70.0137177,43.0167236 70.0137177,45.6055298 C70.0137177,48.1943359 70.6609192,50.5723801 71.9553223,52.7396622 C73.2497253,54.9069443 74.9738235,56.6376572 77.1276169,57.9318008 C79.2814102,59.2259445 81.6542664,59.8730164 84.2461853,59.8730164 Z" id="Path" fill="#5E5CE6"></path>
            <path d="M31.7761688,91.2110596 C34.3680878,91.2110596 36.7409439,90.563858 38.8947372,89.269455 C41.0485306,87.9750519 42.7726288,86.2434311 44.0670319,84.0745926 C45.3614349,81.9057541 46.0086365,79.523819 46.0086365,76.9287872 C46.0086365,74.3399811 45.3606567,71.9694595 44.0646973,69.8172226 C42.7687378,67.6649857 41.0446396,65.9416656 38.8924026,64.6472626 C36.7401657,63.3528595 34.3680878,62.705658 31.7761688,62.705658 C29.1873627,62.705658 26.8093185,63.3528595 24.6420364,64.6472626 C22.4747543,65.9416656 20.7439117,67.6649857 19.4495087,69.8172226 C18.1551056,71.9694595 17.5079041,74.3399811 17.5079041,76.9287872 C17.5079041,79.5170746 18.1543274,81.8882446 19.4471741,84.0422974 C20.7400208,86.1963501 22.4625626,87.929657 24.6147995,89.242218 C26.7670364,90.5547791 29.1541595,91.2110596 31.7761688,91.2110596 Z" id="Path" fill="#0B84FF"></path>
            <path d="M66.7429504,91.2110596 C69.3613281,91.2110596 71.7474136,90.5630798 73.901207,89.2671204 C76.0550003,87.9711609 77.7790985,86.2387619 79.0735016,84.0699234 C80.3679047,81.9010849 81.0151062,79.5207062 81.0151062,76.9287872 C81.0151062,74.3399811 80.3679047,71.9694595 79.0735016,69.8172226 C77.7790985,67.6649857 76.0550003,65.9416656 73.901207,64.6472626 C71.7474136,63.3528595 69.3613281,62.705658 66.7429504,62.705658 C64.1541443,62.705658 61.7828445,63.3528595 59.6290512,64.6472626 C57.4752579,65.9416656 55.7511597,67.6649857 54.4567566,69.8172226 C53.1623535,71.9694595 52.515152,74.3399811 52.515152,76.9287872 C52.515152,79.5207062 53.1623535,81.9010849 54.4567566,84.0699234 C55.7511597,86.2387619 57.4752579,87.9711609 59.6290512,89.2671204 C61.7828445,90.5630798 64.1541443,91.2110596 66.7429504,91.2110596 Z" id="Path" fill="#FFD60B"></path>
        </g>
    </g>
</svg>